<svg width="399" height="140" viewBox="0 0 399 140" fill="none" xmlns="http://www.w3.org/2000/svg">
<path d="M307.311 0H290.699L291.347 9.81996H287.921L288.569 0H271.957L263.982 74.6239H283.653L284.766 57.7488H294.505L295.616 74.6239H315.286L307.311 0ZM285.86 41.1638L287.134 21.8215H292.137L293.41 41.1638H285.86Z" fill="#F9580E"/>
<path fill-rule="evenodd" clip-rule="evenodd" d="M173.017 0C173.655 0 174.206 0.284284 174.67 0.852848C175.134 1.42141 175.366 2.09658 175.366 2.87835V20.5216H166.038C165.008 20.5216 164.173 21.3568 164.173 22.3872V23.32H165.105H166.038H166.971H167.904H168.837H169.769H170.702H171.635H172.568H173.501H174.433H175.366V24.2528V27.0512V71.7456C175.366 72.5273 175.134 73.2025 174.67 73.7711C174.206 74.3396 173.655 74.6239 173.017 74.6239H159.005C157.613 74.6239 156.453 73.8777 155.524 72.3852L136.553 42.7488V71.7456C136.553 71.7723 136.553 71.799 136.552 71.8255H139.453V73.2247H141.785V74.6239H134.203H133.39H118.017C117.379 74.6239 116.827 74.3396 116.363 73.7711C115.899 73.2025 115.667 72.5273 115.667 71.7456V2.87835C115.667 2.09658 115.899 1.42141 116.363 0.852848C116.827 0.284284 117.379 0 118.017 0H132.115C133.507 0 134.639 0.710705 135.509 2.13212L144.727 17.7232H132.457C131.427 17.7232 130.592 18.5584 130.592 19.5888V21.4544H131.525H132.457H133.39H134.323H135.256H136.189H137.121H138.054H138.987H139.92H140.853H141.785H142.718H143.651H144.584H145.517H146.449H147.382H148.315H149.248V22.3872V25.1856H149.139L154.48 34.2204V2.87835C154.48 2.09658 154.712 1.42141 155.176 0.852848C155.641 0.284284 156.192 0 156.83 0H173.017ZM164.173 27.0512V24.2528H165.105V27.0512H164.173ZM166.971 27.0512H166.038V24.2528H166.971V27.0512ZM168.837 27.0512H167.904V24.2528H168.837V27.0512ZM170.702 27.0512H169.769V24.2528H170.702V27.0512ZM172.568 27.0512H171.635V24.2528H172.568V27.0512ZM174.433 27.0512H173.501V24.2528H174.433V27.0512ZM130.592 23.32V22.3872H131.525V24.936C130.967 24.6134 130.592 24.0105 130.592 23.32ZM133.39 25.1856H132.457V22.3872H133.39V25.1856ZM135.256 25.1856H134.323V22.3872H135.256V25.1856ZM137.121 25.1856H136.189V22.3872H137.121V25.1856ZM138.987 25.1856H138.054V22.3872H138.987V25.1856ZM140.853 25.1856H139.92V22.3872H140.853V25.1856ZM142.718 25.1856H141.785V22.3872H142.718V25.1856ZM144.584 25.1856H143.651V22.3872H144.584V25.1856ZM146.449 25.1856H145.517V22.3872H146.449V25.1856ZM148.315 22.3872V24.936C148.041 25.0947 147.722 25.1856 147.382 25.1856V22.3872H148.315ZM158.576 6.52959C158.576 5.49925 159.411 4.66399 160.441 4.66399H162.307C163.337 4.66399 164.173 5.49925 164.173 6.52959V13.0592C164.173 14.0895 163.337 14.9248 162.307 14.9248H160.441C159.411 14.9248 158.576 14.0895 158.576 13.0592V6.52959ZM160.441 57.8335C161.472 57.8335 162.307 58.6688 162.307 59.6991V64.3631C162.307 65.3935 161.472 66.2287 160.441 66.2287H158.576C157.545 66.2287 156.71 65.3935 156.71 64.3631V59.6991C156.71 58.6688 157.545 57.8335 158.576 57.8335H160.441ZM166.971 57.8335C168.001 57.8335 168.837 58.6688 168.837 59.6991V64.3631C168.837 65.3935 168.001 66.2287 166.971 66.2287H165.105C164.075 66.2287 163.24 65.3935 163.24 64.3631V59.6991C163.24 58.6688 164.075 57.8335 165.105 57.8335H166.971ZM167.904 4.66399C166.873 4.66399 166.038 5.49925 166.038 6.52959V9.32799C166.038 10.3583 166.873 11.1936 167.904 11.1936H169.769C170.8 11.1936 171.635 10.3583 171.635 9.32799V6.52959C171.635 5.49925 170.8 4.66399 169.769 4.66399H167.904ZM126.861 65.2959C126.861 64.2656 127.696 63.4303 128.726 63.4303H130.592C131.622 63.4303 132.457 64.2656 132.457 65.2959V68.0943C132.457 69.1247 131.622 69.9599 130.592 69.9599H128.726C127.696 69.9599 126.861 69.1247 126.861 68.0943V65.2959ZM169.769 33.5808C168.739 33.5808 167.904 34.416 167.904 35.4464V40.1104C167.904 41.1407 168.739 41.976 169.769 41.976H171.635C172.665 41.976 173.501 41.1407 173.501 40.1104V35.4464C173.501 34.416 172.665 33.5808 171.635 33.5808H169.769ZM126.861 49.4383C126.861 48.408 127.696 47.5727 128.726 47.5727H130.592C131.622 47.5727 132.457 48.408 132.457 49.4383V54.1023C132.457 55.1327 131.622 55.9679 130.592 55.9679H128.726C127.696 55.9679 126.861 55.1327 126.861 54.1023V49.4383ZM160.441 43.8416C159.411 43.8416 158.576 44.6768 158.576 45.7072V50.3711C158.576 51.4015 159.411 52.2367 160.441 52.2367H162.307C163.337 52.2367 164.173 51.4015 164.173 50.3711V45.7072C164.173 44.6768 163.337 43.8416 162.307 43.8416H160.441ZM118.465 54.1023C118.465 53.072 119.301 52.2367 120.331 52.2367H122.197C123.227 52.2367 124.062 53.072 124.062 54.1023V58.7663C124.062 59.7967 123.227 60.6319 122.197 60.6319H120.331C119.301 60.6319 118.465 59.7967 118.465 58.7663V54.1023ZM124.529 6.52959C125.301 6.52959 125.928 7.15604 125.928 7.92879V9.79439C125.928 10.5671 125.301 11.1936 124.529 11.1936C123.756 11.1936 123.129 10.5671 123.129 9.79439V7.92879C123.129 7.15604 123.756 6.52959 124.529 6.52959ZM124.529 12.1264C125.301 12.1264 125.928 12.7528 125.928 13.5256V15.3912C125.928 16.1639 125.301 16.7904 124.529 16.7904C123.756 16.7904 123.129 16.1639 123.129 15.3912V13.5256C123.129 12.7528 123.756 12.1264 124.529 12.1264ZM129.193 6.52959C128.42 6.52959 127.793 7.15604 127.793 7.92879V9.79439C127.793 10.5671 128.42 11.1936 129.193 11.1936C129.965 11.1936 130.592 10.5671 130.592 9.79439V7.92879C130.592 7.15604 129.965 6.52959 129.193 6.52959ZM129.193 12.1264C129.965 12.1264 130.592 12.7528 130.592 13.5256V15.3912C130.592 16.1639 129.965 16.7904 129.193 16.7904C128.42 16.7904 127.793 16.1639 127.793 15.3912V13.5256C127.793 12.7528 128.42 12.1264 129.193 12.1264Z" fill="#F9580E"/>
<path d="M231.252 17.0406L234.259 20.2281V74.4601H237.307L237.477 20.2281L240.755 17.0406H231.252Z" fill="#C7C7C7"/>
<path d="M231.252 17.0611L240.672 17.0221H240.744L240.693 17.0897L237.453 21.4082V21.3744C237.453 33.6351 237.463 50.9739 237.468 70.1728V74.6239H234.183V74.5536C234.195 50.6799 234.206 30.7241 234.212 21.3718V21.39L231.252 17.0611L234.246 21.3562C234.246 30.7215 234.261 50.6643 234.275 74.538L234.225 74.4704H237.417L237.367 74.538V70.1598C237.367 50.9609 237.379 33.6221 237.383 21.3614V21.3405L237.394 21.3275L240.647 17.0195L240.666 17.0871L231.252 17.0611Z" fill="#263238"/>
<path d="M237.477 20.2704C236.4 20.337 235.319 20.337 234.242 20.2704C235.319 20.2037 236.4 20.2037 237.477 20.2704Z" fill="#263238"/>
<path d="M218.275 44.7744L220.341 46.4314V74.6239H222.435L222.552 46.4314L224.805 44.7744H218.275Z" fill="#C7C7C7"/>
<path d="M218.275 44.7959L224.755 44.7757H224.805L224.769 44.8108L222.541 47.0485V47.031C222.541 53.3843 222.547 62.3689 222.551 72.3174V74.6239H220.291V74.5875C220.299 62.2166 220.307 51.8758 220.311 47.0296V47.0391L218.275 44.7959L220.334 47.0215C220.334 51.8745 220.345 62.2085 220.354 74.5794L220.32 74.5444H222.516L222.482 74.5794V72.3107C222.482 62.3622 222.489 53.3775 222.492 47.0242V47.0134L222.5 47.0067L224.738 44.7744L224.751 44.8094L218.275 44.7959Z" fill="#263238"/>
<path d="M222.55 47.1581C221.734 47.2247 220.915 47.2247 220.098 47.1581C220.915 47.0914 221.734 47.0914 222.55 47.1581Z" fill="#263238"/>
<path fill-rule="evenodd" clip-rule="evenodd" d="M216.197 57.8637H228.388C228.731 57.8637 229.071 57.796 229.388 57.6646C229.705 57.5332 229.993 57.3406 230.236 57.0978C230.478 56.8549 230.671 56.5667 230.802 56.2495C230.933 55.9323 231 55.5923 231 55.2491V50.0767H246.457V60.1245C246.457 61.8567 246.116 63.5719 245.453 65.1722C244.79 66.7725 243.819 68.2266 242.594 69.4515C240.12 71.9251 236.765 73.3148 233.267 73.3148H216.197V57.8637Z" fill="#F9580E"/>
<path d="M215.602 56.6288C215.327 56.6288 215.062 56.7381 214.867 56.9328C214.672 57.1274 214.563 57.3915 214.562 57.667V73.5334C214.562 73.8092 214.672 74.0737 214.867 74.2688C215.062 74.4638 215.326 74.5734 215.602 74.5734V74.5734C215.878 74.5729 216.142 74.4631 216.336 74.2681C216.531 74.0731 216.64 73.8089 216.64 73.5334V57.6631C216.639 57.3885 216.53 57.1254 216.335 56.9315C216.14 56.7377 215.877 56.6288 215.602 56.6288Z" fill="#F9580E"/>
<path d="M215.602 56.6289C215.734 56.6351 215.864 56.6624 215.987 56.7096C216.157 56.7788 216.307 56.8925 216.419 57.0389C216.53 57.1853 216.601 57.3591 216.623 57.5421C216.623 58.5033 216.623 59.9106 216.623 61.6389C216.623 63.3672 216.623 65.4339 216.611 67.7217C216.611 68.8656 216.611 70.0671 216.611 71.3129C216.611 71.9358 216.611 72.5702 216.611 73.2123C216.617 73.3713 216.614 73.5306 216.6 73.6891C216.576 73.8426 216.516 73.9881 216.425 74.114C216.333 74.2414 216.213 74.3452 216.073 74.4168C215.934 74.4884 215.779 74.5257 215.622 74.5257C215.465 74.5257 215.311 74.4884 215.171 74.4168C215.032 74.3452 214.911 74.2414 214.82 74.114C214.728 73.9878 214.669 73.8414 214.647 73.6872C214.632 73.5293 214.628 73.3707 214.633 73.2123C214.633 72.5715 214.633 71.9377 214.633 71.311C214.633 70.0671 214.633 68.8636 214.633 67.7198C214.633 65.432 214.633 63.3691 214.622 61.637C214.61 59.9048 214.604 58.5014 214.622 57.5401C214.644 57.3575 214.714 57.1841 214.826 57.0377C214.937 56.8914 215.086 56.7775 215.256 56.7077C215.379 56.6604 215.509 56.6331 215.641 56.6269H215.541C215.443 56.6353 215.348 56.6566 215.256 56.6904C215.109 56.7483 214.978 56.839 214.872 56.9557C214.722 57.1147 214.626 57.3163 214.597 57.5324C214.574 58.5052 214.581 59.9029 214.574 61.6351C214.566 63.3672 214.574 65.4301 214.562 67.7178C214.562 68.8617 214.562 70.0652 214.562 71.3091V73.2104C214.557 73.3739 214.562 73.5376 214.576 73.7006C214.602 73.87 214.667 74.0308 214.768 74.1697C214.868 74.3102 215.001 74.4247 215.155 74.5037C215.308 74.5827 215.478 74.6239 215.651 74.6239C215.824 74.6239 215.994 74.5827 216.148 74.5037C216.301 74.4247 216.434 74.3102 216.535 74.1697C216.636 74.0321 216.702 73.8717 216.727 73.7026C216.741 73.5389 216.745 73.3746 216.74 73.2104V71.311C216.74 70.0652 216.74 68.8636 216.74 67.7198C216.74 65.432 216.74 63.3711 216.731 61.637C216.721 59.9029 216.731 58.5071 216.706 57.5344C216.676 57.3183 216.58 57.1168 216.431 56.9576C216.325 56.841 216.193 56.7502 216.046 56.6923C215.955 56.6585 215.859 56.6372 215.762 56.6289H215.602Z" fill="#263238"/>
<g opacity="0.3">
<path opacity="0.3" d="M216.64 73.5335C216.64 73.5335 219.174 66.6279 216.64 57.9613V73.5335Z" fill="black"/>
</g>
<path d="M215.602 56.6289C215.734 56.6351 215.864 56.6624 215.987 56.7096C216.157 56.7788 216.307 56.8925 216.419 57.0389C216.53 57.1853 216.601 57.3591 216.623 57.5421C216.623 58.5033 216.623 59.9106 216.623 61.6389C216.623 63.3672 216.623 65.4339 216.611 67.7217C216.611 68.8656 216.611 70.0671 216.611 71.3129C216.611 71.9358 216.611 72.5702 216.611 73.2123C216.617 73.3713 216.614 73.5306 216.6 73.6891C216.576 73.8426 216.516 73.9881 216.425 74.114C216.333 74.2414 216.213 74.3452 216.073 74.4168C215.934 74.4884 215.779 74.5257 215.622 74.5257C215.465 74.5257 215.311 74.4884 215.171 74.4168C215.032 74.3452 214.911 74.2414 214.82 74.114C214.728 73.9878 214.669 73.8414 214.647 73.6872C214.632 73.5293 214.628 73.3707 214.633 73.2123C214.633 72.5715 214.633 71.9377 214.633 71.311C214.633 70.0671 214.633 68.8636 214.633 67.7198C214.633 65.432 214.633 63.3691 214.622 61.637C214.61 59.9048 214.604 58.5014 214.622 57.5401C214.644 57.3575 214.714 57.1841 214.826 57.0377C214.937 56.8914 215.086 56.7775 215.256 56.7077C215.379 56.6604 215.509 56.6331 215.641 56.6269H215.541C215.443 56.6353 215.348 56.6566 215.256 56.6904C215.109 56.7483 214.978 56.839 214.872 56.9557C214.722 57.1147 214.626 57.3163 214.597 57.5324C214.574 58.5052 214.581 59.9029 214.574 61.6351C214.566 63.3672 214.574 65.4301 214.562 67.7178C214.562 68.8617 214.562 70.0652 214.562 71.3091V73.2104C214.557 73.3739 214.562 73.5376 214.576 73.7006C214.602 73.87 214.667 74.0308 214.768 74.1697C214.868 74.3102 215.001 74.4247 215.155 74.5037C215.308 74.5827 215.478 74.6239 215.651 74.6239C215.824 74.6239 215.994 74.5827 216.148 74.5037C216.301 74.4247 216.434 74.3102 216.535 74.1697C216.636 74.0321 216.702 73.8717 216.727 73.7026C216.741 73.5389 216.745 73.3746 216.74 73.2104V71.311C216.74 70.0652 216.74 68.8636 216.74 67.7198C216.74 65.432 216.74 63.3711 216.731 61.637C216.721 59.9029 216.731 58.5071 216.706 57.5344C216.676 57.3183 216.58 57.1168 216.431 56.9576C216.325 56.841 216.193 56.7502 216.046 56.6923C215.955 56.6585 215.859 56.6372 215.762 56.6289H215.602Z" fill="#263238"/>
<g opacity="0.3">
<path opacity="0.3" d="M216.64 73.5335C216.64 73.5335 219.174 66.6279 216.64 57.9613V73.5335Z" fill="black"/>
</g>
<path d="M228.453 55.7321C228.52 55.6134 228.611 55.5092 228.719 55.4256C228.827 55.3419 228.95 55.2805 229.082 55.2447C229.214 55.209 229.352 55.1997 229.487 55.2173C229.623 55.235 229.753 55.2793 229.872 55.3476L246.774 65.1101C246.893 65.1778 246.997 65.2683 247.08 65.3764C247.164 65.4844 247.225 65.6079 247.261 65.7397C247.296 65.8715 247.306 66.009 247.288 66.1444C247.271 66.2799 247.227 66.4105 247.159 66.5289V66.5289C247.091 66.6474 247 66.7514 246.892 66.8349C246.784 66.9184 246.661 66.9797 246.529 67.0155C246.397 67.0512 246.26 67.0605 246.124 67.043C245.989 67.0255 245.858 66.9814 245.74 66.9134L228.841 57.1567C228.721 57.0892 228.616 56.9987 228.532 56.8903C228.448 56.782 228.386 56.658 228.349 56.5255C228.313 56.393 228.304 56.2546 228.322 56.1184C228.339 55.9823 228.384 55.8509 228.453 55.7321V55.7321Z" fill="#F9580E"/>
<path d="M228.453 55.7322C228.383 55.8688 228.34 56.0177 228.328 56.1705C228.316 56.3219 228.339 56.474 228.394 56.6154C228.45 56.7568 228.536 56.884 228.647 56.9876C228.748 57.0767 228.859 57.1523 228.98 57.2125L233.209 59.6406L239.484 63.2511L243.189 65.3851L245.148 66.5155L245.646 66.8039C245.799 66.9115 245.978 66.9777 246.165 66.9961C246.35 67.0109 246.536 66.973 246.701 66.8868C246.866 66.8005 247.003 66.6694 247.096 66.5086C247.19 66.3478 247.236 66.1639 247.229 65.978C247.222 65.7921 247.163 65.6119 247.059 65.4581C246.951 65.3058 246.806 65.1834 246.638 65.1025L246.138 64.8141L244.179 63.6817L240.478 61.542L234.213 57.9123L229.983 55.4573C229.87 55.384 229.749 55.3252 229.622 55.2823C229.509 55.2481 229.391 55.2337 229.274 55.24C229.088 55.2504 228.909 55.3108 228.755 55.415C228.635 55.5005 228.532 55.6082 228.453 55.7322C228.471 55.6971 228.491 55.6631 228.512 55.6303C228.58 55.5357 228.663 55.4532 228.758 55.3862C228.914 55.2753 229.097 55.2089 229.287 55.1939C229.408 55.1844 229.53 55.1974 229.647 55.2324C229.778 55.2738 229.902 55.3327 230.018 55.4073L234.247 57.8335L240.524 61.4459L244.229 63.5798L246.197 64.718L246.697 65.0063C246.878 65.0949 247.034 65.227 247.151 65.3908C247.269 65.5602 247.335 65.7595 247.344 65.9654C247.352 66.1714 247.302 66.3755 247.199 66.5539C247.096 66.7323 246.944 66.8776 246.761 66.973C246.578 67.0683 246.372 67.1097 246.167 67.0922C245.967 67.0756 245.774 67.0096 245.605 66.9L245.107 66.6116L243.148 65.4812L239.448 63.3395L233.184 59.7118L228.964 57.2567C228.842 57.1937 228.728 57.1149 228.626 57.0222C228.539 56.9376 228.467 56.8388 228.412 56.73C228.329 56.5586 228.294 56.368 228.311 56.1782C228.322 56.0628 228.352 55.9499 228.399 55.8437C228.414 55.8053 228.432 55.768 228.453 55.7322V55.7322Z" fill="#263238"/>
<path fill-rule="evenodd" clip-rule="evenodd" d="M216.197 44.9078H228.387C228.731 44.9078 229.071 44.9755 229.388 45.1069C229.705 45.2383 229.993 45.4309 230.236 45.6738C230.478 45.9166 230.671 46.2048 230.802 46.522C230.933 46.8392 231 47.1792 231 47.5224V52.6949H246.457V42.647C246.457 40.9148 246.116 39.1996 245.453 37.5993C244.79 35.999 243.819 34.5449 242.594 33.3201C240.12 30.8464 236.765 29.4567 233.267 29.4567H216.197V44.9078Z" fill="#F9580E"/>
<path d="M215.602 46.1427C215.327 46.1427 215.062 46.0334 214.867 45.8387C214.672 45.6441 214.563 45.38 214.562 45.1045V29.2382C214.562 28.9623 214.672 28.6978 214.867 28.5027C215.062 28.3077 215.326 28.1981 215.602 28.1981V28.1981C215.878 28.1986 216.142 28.3084 216.336 28.5034C216.531 28.6984 216.64 28.9627 216.64 29.2382V45.1084C216.639 45.383 216.529 45.6461 216.335 45.84C216.14 46.0338 215.877 46.1427 215.602 46.1427Z" fill="#F9580E"/>
<path d="M215.602 46.1427C215.734 46.1364 215.864 46.1092 215.987 46.0619C216.157 45.9928 216.307 45.879 216.419 45.7326C216.53 45.5862 216.601 45.4125 216.623 45.2295C216.623 44.2682 216.623 42.861 216.623 41.1326C216.623 39.4043 216.623 37.3376 216.611 35.0499C216.611 33.906 216.611 32.7044 216.611 31.4586C216.611 30.8358 216.611 30.2013 216.611 29.5592C216.617 29.4002 216.614 29.241 216.6 29.0824C216.576 28.929 216.516 28.7834 216.425 28.6576C216.333 28.5301 216.213 28.4263 216.073 28.3547C215.934 28.2831 215.779 28.2458 215.622 28.2458C215.465 28.2458 215.311 28.2831 215.171 28.3547C215.032 28.4263 214.911 28.5301 214.82 28.6576C214.728 28.7837 214.669 28.9302 214.647 29.0844C214.632 29.2422 214.628 29.4008 214.633 29.5592C214.633 30.2 214.633 30.8338 214.633 31.4606C214.633 32.7044 214.633 33.9079 214.633 35.0518C214.633 37.3396 214.633 39.4024 214.622 41.1346C214.61 42.8667 214.604 44.2702 214.622 45.2314C214.644 45.4141 214.714 45.5875 214.826 45.7338C214.937 45.8801 215.086 45.9941 215.256 46.0639C215.379 46.1112 215.509 46.1384 215.641 46.1446H215.541C215.443 46.1363 215.348 46.1149 215.256 46.0812C215.109 46.0233 214.978 45.9325 214.872 45.8159C214.722 45.6568 214.626 45.4552 214.597 45.2391C214.574 44.2663 214.581 42.8687 214.574 41.1365C214.566 39.4043 214.574 37.3415 214.562 35.0537C214.562 33.9098 214.562 32.7063 214.562 31.4625V29.5611C214.557 29.3976 214.562 29.2339 214.576 29.0709C214.602 28.9015 214.667 28.7408 214.768 28.6018C214.868 28.4613 215.001 28.3468 215.155 28.2678C215.308 28.1888 215.478 28.1476 215.651 28.1476C215.824 28.1476 215.994 28.1888 216.148 28.2678C216.301 28.3468 216.434 28.4613 216.535 28.6018C216.636 28.7394 216.702 28.8998 216.727 29.069C216.741 29.2326 216.745 29.397 216.74 29.5611V31.4606C216.74 32.7063 216.74 33.9079 216.74 35.0518C216.74 37.3396 216.74 39.4005 216.731 41.1346C216.721 42.8687 216.731 44.2644 216.706 45.2372C216.676 45.4532 216.58 45.6547 216.431 45.8139C216.325 45.9306 216.193 46.0213 216.046 46.0792C215.955 46.113 215.859 46.1343 215.762 46.1427H215.602Z" fill="#263238"/>
<g opacity="0.3">
<path opacity="0.3" d="M216.64 29.2382C216.64 29.2382 219.174 36.1438 216.64 44.8104V29.2382Z" fill="black"/>
</g>
<path d="M215.602 46.1427C215.734 46.1364 215.864 46.1092 215.987 46.0619C216.157 45.9928 216.307 45.879 216.419 45.7326C216.53 45.5862 216.601 45.4125 216.623 45.2295C216.623 44.2682 216.623 42.861 216.623 41.1326C216.623 39.4043 216.623 37.3376 216.611 35.0499C216.611 33.906 216.611 32.7044 216.611 31.4586C216.611 30.8358 216.611 30.2013 216.611 29.5592C216.617 29.4002 216.614 29.241 216.6 29.0824C216.576 28.929 216.516 28.7834 216.425 28.6576C216.333 28.5301 216.213 28.4263 216.073 28.3547C215.934 28.2831 215.779 28.2458 215.622 28.2458C215.465 28.2458 215.311 28.2831 215.171 28.3547C215.032 28.4263 214.911 28.5301 214.82 28.6576C214.728 28.7837 214.669 28.9302 214.647 29.0844C214.632 29.2422 214.628 29.4008 214.633 29.5592C214.633 30.2 214.633 30.8338 214.633 31.4606C214.633 32.7044 214.633 33.9079 214.633 35.0518C214.633 37.3396 214.633 39.4024 214.622 41.1346C214.61 42.8667 214.604 44.2702 214.622 45.2314C214.644 45.4141 214.714 45.5875 214.826 45.7338C214.937 45.8801 215.086 45.9941 215.256 46.0639C215.379 46.1112 215.509 46.1384 215.641 46.1446H215.541C215.443 46.1363 215.348 46.1149 215.256 46.0812C215.109 46.0233 214.978 45.9325 214.872 45.8159C214.722 45.6568 214.626 45.4552 214.597 45.2391C214.574 44.2663 214.581 42.8687 214.574 41.1365C214.566 39.4043 214.574 37.3415 214.562 35.0537C214.562 33.9098 214.562 32.7063 214.562 31.4625V29.5611C214.557 29.3976 214.562 29.2339 214.576 29.0709C214.602 28.9015 214.667 28.7408 214.768 28.6018C214.868 28.4613 215.001 28.3468 215.155 28.2678C215.308 28.1888 215.478 28.1476 215.651 28.1476C215.824 28.1476 215.994 28.1888 216.148 28.2678C216.301 28.3468 216.434 28.4613 216.535 28.6018C216.636 28.7394 216.702 28.8998 216.727 29.069C216.741 29.2326 216.745 29.397 216.74 29.5611V31.4606C216.74 32.7063 216.74 33.9079 216.74 35.0518C216.74 37.3396 216.74 39.4005 216.731 41.1346C216.721 42.8687 216.731 44.2644 216.706 45.2372C216.676 45.4532 216.58 45.6547 216.431 45.8139C216.325 45.9306 216.193 46.0213 216.046 46.0792C215.955 46.113 215.859 46.1343 215.762 46.1427H215.602Z" fill="#263238"/>
<g opacity="0.3">
<path opacity="0.3" d="M216.64 29.2382C216.64 29.2382 219.174 36.1438 216.64 44.8104V29.2382Z" fill="black"/>
</g>
<path d="M228.453 47.0394C228.52 47.1581 228.611 47.2623 228.719 47.346C228.827 47.4296 228.95 47.4911 229.082 47.5268C229.214 47.5625 229.352 47.5718 229.487 47.5542C229.623 47.5365 229.753 47.4922 229.871 47.4239L246.774 37.6615C246.893 37.5937 246.997 37.5032 247.08 37.3951C247.164 37.2871 247.225 37.1636 247.261 37.0318C247.296 36.9 247.306 36.7625 247.288 36.6271C247.271 36.4917 247.227 36.361 247.159 36.2427V36.2427C247.091 36.1241 247 36.0201 246.892 35.9366C246.784 35.8531 246.661 35.7918 246.529 35.7561C246.397 35.7203 246.26 35.711 246.124 35.7285C245.989 35.746 245.858 35.7901 245.74 35.8582L228.841 45.6148C228.721 45.6823 228.616 45.7728 228.532 45.8812C228.448 45.9895 228.386 46.1135 228.349 46.246C228.313 46.3785 228.304 46.5169 228.322 46.6531C228.339 46.7893 228.384 46.9206 228.453 47.0394V47.0394Z" fill="#F9580E"/>
<path d="M228.453 47.0394C228.383 46.9028 228.34 46.7539 228.328 46.6011C228.316 46.4497 228.339 46.2976 228.394 46.1562C228.45 46.0148 228.536 45.8876 228.647 45.784C228.748 45.6949 228.859 45.6193 228.98 45.5591L233.209 43.131L239.484 39.5205L243.189 37.3865L245.148 36.2561L245.646 35.9677C245.799 35.8601 245.978 35.7939 246.165 35.7755C246.35 35.7607 246.536 35.7986 246.701 35.8848C246.866 35.9711 247.003 36.1022 247.096 36.263C247.19 36.4238 247.236 36.6077 247.229 36.7936C247.222 36.9795 247.163 37.1597 247.059 37.3135C246.951 37.4658 246.806 37.5882 246.638 37.6691L246.138 37.9575L244.179 39.0899L240.478 41.2296L234.213 44.8593L229.983 47.3143C229.87 47.3876 229.749 47.4464 229.622 47.4893C229.509 47.5235 229.391 47.5379 229.274 47.5316C229.088 47.5212 228.909 47.4608 228.755 47.3566C228.635 47.2711 228.532 47.1634 228.453 47.0394C228.471 47.0745 228.491 47.1085 228.512 47.1413C228.58 47.2359 228.663 47.3184 228.758 47.3854C228.914 47.4963 229.097 47.5627 229.287 47.5777C229.408 47.5872 229.53 47.5742 229.647 47.5392C229.778 47.4978 229.902 47.4389 230.018 47.3643L234.247 44.9381L240.524 41.3257L244.229 39.1918L246.197 38.0536L246.697 37.7653C246.878 37.6767 247.034 37.5446 247.151 37.3808C247.268 37.2114 247.335 37.0121 247.344 36.8062C247.352 36.6002 247.302 36.3962 247.199 36.2177C247.095 36.0393 246.944 35.894 246.761 35.7986C246.578 35.7033 246.372 35.6619 246.167 35.6794C245.967 35.696 245.774 35.762 245.605 35.8716L245.107 36.16L243.148 37.2904L239.448 39.4321L233.184 43.0598L228.964 45.5149C228.842 45.5779 228.728 45.6568 228.626 45.7494C228.539 45.834 228.466 45.9328 228.412 46.0416C228.329 46.213 228.294 46.4036 228.311 46.5934C228.322 46.7088 228.352 46.8217 228.399 46.9279C228.414 46.9663 228.432 47.0036 228.453 47.0394V47.0394Z" fill="#263238"/>
<g opacity="0.3">
<path opacity="0.3" d="M242.929 37.6577C242.929 37.6577 235.668 38.8361 229.362 45.2919L242.929 37.6577Z" fill="black"/>
</g>
<g opacity="0.3">
<path opacity="0.3" d="M242.929 65.1139C242.929 65.1139 235.668 63.9354 229.362 57.4797L242.929 65.1139Z" fill="black"/>
</g>
<path fill-rule="evenodd" clip-rule="evenodd" d="M206.773 43.2032V55.3943C206.773 55.7376 206.841 56.0775 206.972 56.3946C207.104 56.7117 207.296 56.9998 207.539 57.2424C207.782 57.4851 208.07 57.6775 208.387 57.8087C208.704 57.9398 209.044 58.0072 209.388 58.007H214.56V73.4639H204.512C202.78 73.4639 201.065 73.1227 199.465 72.4598C197.864 71.7969 196.41 70.8254 195.185 69.6005C192.712 67.1269 191.322 63.7719 191.322 60.2736V43.2032H206.773Z" fill="#F9580E"/>
<path d="M208.008 42.6089C208.008 42.3333 207.898 42.0691 207.704 41.8741C207.509 41.6791 207.245 41.5693 206.97 41.5688H191.103C190.827 41.5688 190.563 41.6784 190.368 41.8734C190.173 42.0685 190.063 42.333 190.063 42.6089V42.6089C190.064 42.8844 190.174 43.1484 190.369 43.343C190.564 43.5377 190.828 43.647 191.103 43.647H206.973C207.248 43.646 207.511 43.5362 207.705 43.3416C207.899 43.147 208.008 42.8835 208.008 42.6089Z" fill="#F9580E"/>
<path d="M208.008 42.6088C208.002 42.7405 207.974 42.8703 207.927 42.9933C207.858 43.1641 207.744 43.3133 207.598 43.4252C207.451 43.5371 207.278 43.6077 207.095 43.6297C206.133 43.6297 204.726 43.6297 202.998 43.6297C201.269 43.6297 199.203 43.6297 196.915 43.6181C195.771 43.6181 194.569 43.6181 193.324 43.6181C192.701 43.6181 192.066 43.6181 191.424 43.6181C191.265 43.624 191.106 43.6202 190.948 43.6066C190.794 43.5826 190.648 43.5227 190.523 43.4316C190.395 43.3401 190.291 43.2196 190.22 43.0801C190.148 42.9405 190.111 42.7859 190.111 42.629C190.111 42.4721 190.148 42.3175 190.22 42.178C190.291 42.0384 190.395 41.9179 190.523 41.8264C190.649 41.7349 190.795 41.6756 190.949 41.6533C191.107 41.6391 191.266 41.6346 191.424 41.6399C192.065 41.6399 192.699 41.6399 193.326 41.6399C194.569 41.6399 195.773 41.6399 196.917 41.6399C199.205 41.6399 201.267 41.6399 203 41.6283C204.732 41.6168 206.135 41.611 207.096 41.6283C207.279 41.6505 207.453 41.721 207.599 41.8325C207.745 41.944 207.859 42.0925 207.929 42.2628C207.976 42.3858 208.003 42.5156 208.01 42.6473V42.5473C208.001 42.45 207.98 42.3543 207.946 42.2628C207.888 42.116 207.798 41.9845 207.681 41.8783C207.522 41.7289 207.32 41.6328 207.104 41.6034C206.131 41.5803 204.734 41.588 203.002 41.5803C201.269 41.5726 199.207 41.5803 196.919 41.5687C195.775 41.5687 194.571 41.5687 193.328 41.5687H191.426C191.263 41.5637 191.099 41.5682 190.936 41.5822C190.767 41.6083 190.606 41.6741 190.467 41.7745C190.326 41.875 190.212 42.0075 190.133 42.1612C190.054 42.3148 190.013 42.4851 190.013 42.6578C190.013 42.8306 190.054 43.0009 190.133 43.1545C190.212 43.3081 190.326 43.4407 190.467 43.5412C190.604 43.6427 190.765 43.7087 190.934 43.7335C191.098 43.7474 191.262 43.7519 191.426 43.7469H193.326C194.571 43.7469 195.773 43.7469 196.917 43.7469C199.205 43.7469 201.266 43.7469 203 43.7373C204.734 43.7277 206.129 43.7373 207.102 43.7123C207.318 43.6825 207.52 43.5864 207.679 43.4374C207.796 43.3312 207.886 43.1997 207.944 43.0529C207.978 42.9613 207.999 42.8656 208.008 42.7684V42.6088Z" fill="#263238"/>
<g opacity="0.3">
<path opacity="0.3" d="M191.103 43.647C191.103 43.647 198.009 46.1809 206.676 43.647H191.103Z" fill="black"/>
</g>
<path d="M208.008 42.6088C208.002 42.7405 207.974 42.8703 207.927 42.9933C207.858 43.1641 207.744 43.3133 207.598 43.4252C207.451 43.5371 207.278 43.6077 207.095 43.6297C206.133 43.6297 204.726 43.6297 202.998 43.6297C201.269 43.6297 199.203 43.6297 196.915 43.6181C195.771 43.6181 194.569 43.6181 193.324 43.6181C192.701 43.6181 192.066 43.6181 191.424 43.6181C191.265 43.624 191.106 43.6202 190.948 43.6066C190.794 43.5826 190.648 43.5227 190.523 43.4316C190.395 43.3401 190.291 43.2196 190.22 43.0801C190.148 42.9405 190.111 42.7859 190.111 42.629C190.111 42.4721 190.148 42.3175 190.22 42.178C190.291 42.0384 190.395 41.9179 190.523 41.8264C190.649 41.7349 190.795 41.6756 190.949 41.6533C191.107 41.6391 191.266 41.6346 191.424 41.6399C192.065 41.6399 192.699 41.6399 193.326 41.6399C194.569 41.6399 195.773 41.6399 196.917 41.6399C199.205 41.6399 201.267 41.6399 203 41.6283C204.732 41.6168 206.135 41.611 207.096 41.6283C207.279 41.6505 207.453 41.721 207.599 41.8325C207.745 41.944 207.859 42.0925 207.929 42.2628C207.976 42.3858 208.003 42.5156 208.01 42.6473V42.5473C208.001 42.45 207.98 42.3543 207.946 42.2628C207.888 42.116 207.798 41.9845 207.681 41.8783C207.522 41.7289 207.32 41.6328 207.104 41.6034C206.131 41.5803 204.734 41.588 203.002 41.5803C201.269 41.5726 199.207 41.5803 196.919 41.5687C195.775 41.5687 194.571 41.5687 193.328 41.5687H191.426C191.263 41.5637 191.099 41.5682 190.936 41.5822C190.767 41.6083 190.606 41.6741 190.467 41.7745C190.326 41.875 190.212 42.0075 190.133 42.1612C190.054 42.3148 190.013 42.4851 190.013 42.6578C190.013 42.8306 190.054 43.0009 190.133 43.1545C190.212 43.3081 190.326 43.4407 190.467 43.5412C190.604 43.6427 190.765 43.7087 190.934 43.7335C191.098 43.7474 191.262 43.7519 191.426 43.7469H193.326C194.571 43.7469 195.773 43.7469 196.917 43.7469C199.205 43.7469 201.266 43.7469 203 43.7373C204.734 43.7277 206.129 43.7373 207.102 43.7123C207.318 43.6825 207.52 43.5864 207.679 43.4374C207.796 43.3312 207.886 43.1997 207.944 43.0529C207.978 42.9613 207.999 42.8656 208.008 42.7684V42.6088Z" fill="#263238"/>
<g opacity="0.3">
<path opacity="0.3" d="M191.103 43.647C191.103 43.647 198.009 46.1809 206.676 43.647H191.103Z" fill="black"/>
</g>
<path d="M208.905 55.4595C209.023 55.5271 209.127 55.6175 209.211 55.7255C209.295 55.8335 209.356 55.957 209.392 56.0889C209.428 56.2208 209.437 56.3584 209.419 56.4939C209.402 56.6293 209.357 56.76 209.289 56.8783L199.527 73.7809C199.459 73.8994 199.368 74.0034 199.26 74.0869C199.152 74.1704 199.029 74.2318 198.897 74.2675C198.765 74.3032 198.628 74.3126 198.492 74.295C198.357 74.2775 198.226 74.2334 198.108 74.1654V74.1654C197.989 74.0976 197.885 74.0071 197.802 73.899C197.718 73.791 197.657 73.6675 197.621 73.5357C197.585 73.4039 197.576 73.2664 197.594 73.131C197.611 72.9956 197.655 72.8649 197.723 72.7466L207.48 55.8478C207.547 55.7282 207.638 55.6231 207.746 55.5388C207.855 55.4544 207.979 55.3923 208.111 55.3562C208.244 55.3201 208.382 55.3106 208.518 55.3283C208.654 55.3461 208.786 55.3906 208.905 55.4595V55.4595Z" fill="#F9580E"/>
<path d="M208.905 55.4595C208.768 55.3896 208.619 55.3471 208.466 55.3345C208.315 55.3231 208.163 55.3458 208.021 55.4011C207.88 55.4563 207.753 55.5426 207.649 55.6537C207.56 55.7543 207.484 55.8661 207.424 55.9862L204.996 60.2157L201.386 66.4908L199.252 70.1954L198.121 72.1544L197.833 72.6524C197.725 72.806 197.659 72.9848 197.641 73.1714C197.626 73.3568 197.664 73.5427 197.75 73.7075C197.836 73.8722 197.967 74.0093 198.128 74.1027C198.289 74.1962 198.473 74.2423 198.659 74.2357C198.845 74.2291 199.025 74.1701 199.179 74.0654C199.331 73.9575 199.453 73.8126 199.534 73.6444L199.823 73.1445L200.955 71.1855L203.095 67.4847L206.724 61.2193L209.179 56.9898C209.253 56.8772 209.312 56.7557 209.354 56.6284C209.389 56.5157 209.403 56.3979 209.397 56.2804C209.386 56.0947 209.326 55.9153 209.222 55.7613C209.136 55.6414 209.029 55.5389 208.905 55.4595C208.94 55.4773 208.974 55.4972 209.006 55.5191C209.101 55.5869 209.184 55.67 209.251 55.7651C209.361 55.9207 209.428 56.1034 209.443 56.2938C209.452 56.415 209.439 56.5369 209.404 56.6533C209.363 56.7843 209.304 56.9091 209.229 57.0244L206.803 61.2539L203.191 67.5308L201.057 71.2355L199.919 73.2041L199.63 73.704C199.542 73.8848 199.41 74.0407 199.246 74.1577C199.077 74.2752 198.877 74.342 198.671 74.3505C198.465 74.3589 198.261 74.3086 198.083 74.2054C197.904 74.1022 197.759 73.9503 197.664 73.7676C197.568 73.5848 197.527 73.3787 197.544 73.1734C197.561 72.9732 197.627 72.7803 197.737 72.612L198.025 72.1141L199.156 70.155L201.297 66.4542L204.925 60.1907L207.38 55.9709C207.443 55.8483 207.522 55.7345 207.615 55.6325C207.699 55.5453 207.798 55.4732 207.907 55.4191C208.078 55.3361 208.269 55.3009 208.459 55.3172C208.574 55.3289 208.687 55.3587 208.793 55.4056C208.831 55.4209 208.869 55.4389 208.905 55.4595V55.4595Z" fill="#263238"/>
<g opacity="0.3">
<path opacity="0.3" d="M199.523 69.9359C199.523 69.9359 200.701 62.6746 207.157 56.3688L199.523 69.9359Z" fill="black"/>
</g>
<path fill-rule="evenodd" clip-rule="evenodd" d="M221.488 16.7603H209.297C208.954 16.7603 208.614 16.8279 208.297 16.9593C207.98 17.0908 207.692 17.2834 207.449 17.5262C207.206 17.769 207.014 18.0573 206.883 18.3745C206.752 18.6917 206.684 19.0316 206.684 19.3749V24.5473L191.228 24.5473V14.4994C191.228 12.7673 191.569 11.0521 192.232 9.45173C192.894 7.85142 193.866 6.39734 195.091 5.17251C197.565 2.69886 200.92 1.30917 204.418 1.30917L221.488 1.30917V16.7603Z" fill="#F9580E"/>
<path d="M222.083 17.9952C222.358 17.9952 222.622 17.8859 222.817 17.6913C223.012 17.4966 223.122 17.2326 223.123 16.9571V1.0907C223.123 0.814856 223.013 0.550309 222.818 0.355258C222.623 0.160207 222.358 0.0506287 222.083 0.0506287V0.0506287C221.807 0.0511379 221.543 0.160942 221.348 0.355938C221.154 0.550934 221.044 0.815189 221.044 1.0907V16.9609C221.045 17.2356 221.155 17.4987 221.35 17.6925C221.544 17.8864 221.808 17.9952 222.083 17.9952Z" fill="#F9580E"/>
<path d="M222.083 17.9952C221.951 17.9889 221.821 17.9617 221.698 17.9144C221.527 17.8453 221.378 17.7315 221.266 17.5851C221.154 17.4387 221.084 17.265 221.062 17.082C221.062 16.1207 221.062 14.7135 221.062 12.9851C221.062 11.2568 221.062 9.19013 221.073 6.90236C221.073 5.75847 221.073 4.55691 221.073 3.31114C221.073 2.68825 221.073 2.05382 221.073 1.41171C221.067 1.25269 221.071 1.09347 221.085 0.934929C221.109 0.781487 221.169 0.635895 221.26 0.510056C221.351 0.38264 221.472 0.278839 221.611 0.207236C221.751 0.135634 221.906 0.0982893 222.062 0.0982893C222.219 0.0982893 222.374 0.135634 222.513 0.207236C222.653 0.278839 222.774 0.38264 222.865 0.510056C222.956 0.636199 223.016 0.782667 223.038 0.93685C223.052 1.09471 223.057 1.2533 223.052 1.41171C223.052 2.05254 223.052 2.68632 223.052 3.31306C223.052 4.55691 223.052 5.7604 223.052 6.90428C223.052 9.19206 223.051 11.2549 223.063 12.9871C223.075 14.7192 223.08 16.1227 223.063 17.0839C223.041 17.2665 222.97 17.44 222.859 17.5863C222.747 17.7326 222.599 17.8466 222.429 17.9163C222.306 17.9636 222.176 17.9909 222.044 17.9971H222.144C222.241 17.9888 222.337 17.9674 222.429 17.9336C222.575 17.8758 222.707 17.785 222.813 17.6683C222.962 17.5093 223.059 17.3077 223.088 17.0916C223.111 16.1188 223.103 14.7212 223.111 12.989C223.119 11.2568 223.111 9.19398 223.123 6.90621C223.123 5.76232 223.123 4.55884 223.123 3.31498V1.41363C223.128 1.25009 223.123 1.08641 223.109 0.923394C223.083 0.754017 223.017 0.593244 222.917 0.454304C222.816 0.31381 222.684 0.199316 222.53 0.120329C222.377 0.0413412 222.206 0.000137329 222.034 0.000137329C221.861 0.000137329 221.691 0.0413412 221.537 0.120329C221.383 0.199316 221.251 0.31381 221.15 0.454304C221.049 0.5919 220.983 0.752336 220.958 0.92147C220.944 1.08513 220.939 1.24945 220.944 1.41363V3.31306C220.944 4.55884 220.944 5.7604 220.944 6.90428C220.944 9.19206 220.944 11.253 220.954 12.9871C220.964 14.7212 220.954 16.1169 220.979 17.0897C221.009 17.3057 221.105 17.5072 221.254 17.6664C221.36 17.7831 221.492 17.8738 221.638 17.9317C221.73 17.9655 221.826 17.9868 221.923 17.9952H222.083Z" fill="#263238"/>
<g opacity="0.3">
<path opacity="0.3" d="M221.044 1.09067C221.044 1.09067 218.51 7.99628 221.044 16.6629V1.09067Z" fill="black"/>
</g>
<path d="M222.083 17.9952C221.951 17.9889 221.821 17.9617 221.698 17.9144C221.527 17.8453 221.378 17.7315 221.266 17.5851C221.154 17.4387 221.084 17.265 221.062 17.082C221.062 16.1207 221.062 14.7135 221.062 12.9851C221.062 11.2568 221.062 9.19013 221.073 6.90236C221.073 5.75847 221.073 4.55691 221.073 3.31114C221.073 2.68825 221.073 2.05382 221.073 1.41171C221.067 1.25269 221.071 1.09347 221.085 0.934929C221.109 0.781487 221.169 0.635895 221.26 0.510056C221.351 0.38264 221.472 0.278839 221.611 0.207236C221.751 0.135634 221.906 0.0982893 222.062 0.0982893C222.219 0.0982893 222.374 0.135634 222.513 0.207236C222.653 0.278839 222.774 0.38264 222.865 0.510056C222.956 0.636199 223.016 0.782667 223.038 0.93685C223.052 1.09471 223.057 1.2533 223.052 1.41171C223.052 2.05254 223.052 2.68632 223.052 3.31306C223.052 4.55691 223.052 5.7604 223.052 6.90428C223.052 9.19206 223.051 11.2549 223.063 12.9871C223.075 14.7192 223.08 16.1227 223.063 17.0839C223.041 17.2665 222.97 17.44 222.859 17.5863C222.747 17.7326 222.599 17.8466 222.429 17.9163C222.306 17.9636 222.176 17.9909 222.044 17.9971H222.144C222.241 17.9888 222.337 17.9674 222.429 17.9336C222.575 17.8758 222.707 17.785 222.813 17.6683C222.962 17.5093 223.059 17.3077 223.088 17.0916C223.111 16.1188 223.103 14.7212 223.111 12.989C223.119 11.2568 223.111 9.19398 223.123 6.90621C223.123 5.76232 223.123 4.55884 223.123 3.31498V1.41363C223.128 1.25009 223.123 1.08641 223.109 0.923394C223.083 0.754017 223.017 0.593244 222.917 0.454304C222.816 0.31381 222.684 0.199316 222.53 0.120329C222.377 0.0413412 222.206 0.000137329 222.034 0.000137329C221.861 0.000137329 221.691 0.0413412 221.537 0.120329C221.383 0.199316 221.251 0.31381 221.15 0.454304C221.049 0.5919 220.983 0.752336 220.958 0.92147C220.944 1.08513 220.939 1.24945 220.944 1.41363V3.31306C220.944 4.55884 220.944 5.7604 220.944 6.90428C220.944 9.19206 220.944 11.253 220.954 12.9871C220.964 14.7212 220.954 16.1169 220.979 17.0897C221.009 17.3057 221.105 17.5072 221.254 17.6664C221.36 17.7831 221.492 17.8738 221.638 17.9317C221.73 17.9655 221.826 17.9868 221.923 17.9952H222.083Z" fill="#263238"/>
<g opacity="0.3">
<path opacity="0.3" d="M221.044 1.09067C221.044 1.09067 218.51 7.99628 221.044 16.6629V1.09067Z" fill="black"/>
</g>
<path d="M209.232 18.8919C209.164 19.0107 209.074 19.1148 208.966 19.1985C208.858 19.2821 208.734 19.3436 208.603 19.3793C208.471 19.4151 208.333 19.4244 208.198 19.4067C208.062 19.3891 207.932 19.3448 207.813 19.2764L190.911 9.514C190.792 9.44621 190.688 9.3557 190.605 9.24766C190.521 9.13962 190.46 9.01617 190.424 8.88438C190.388 8.75258 190.379 8.61503 190.396 8.47961C190.414 8.3442 190.458 8.21356 190.526 8.0952V8.0952C190.594 7.97667 190.684 7.87267 190.792 7.78917C190.901 7.70567 191.024 7.64431 191.156 7.60859C191.288 7.57287 191.425 7.56351 191.561 7.58103C191.696 7.59855 191.827 7.64262 191.945 7.7107L208.844 17.4674C208.963 17.5348 209.068 17.6254 209.153 17.7337C209.237 17.8421 209.299 17.9661 209.335 18.0986C209.371 18.2311 209.381 18.3694 209.363 18.5056C209.345 18.6418 209.301 18.7731 209.232 18.8919V18.8919Z" fill="#F9580E"/>
<path d="M209.232 18.892C209.302 18.7554 209.344 18.6065 209.357 18.4536C209.368 18.3022 209.346 18.1502 209.29 18.0088C209.235 17.8673 209.149 17.7401 209.038 17.6366C208.937 17.5475 208.825 17.4719 208.705 17.4116L204.476 14.9835L198.201 11.3731L194.496 9.23909L192.537 8.10867L192.039 7.82029C191.885 7.71269 191.707 7.64648 191.52 7.62804C191.335 7.61321 191.149 7.65111 190.984 7.73737C190.819 7.82363 190.682 7.95473 190.589 8.11553C190.495 8.27634 190.449 8.4603 190.456 8.64617C190.462 8.83205 190.521 9.01228 190.626 9.16604C190.734 9.31835 190.879 9.44074 191.047 9.5217L191.547 9.81007L193.506 10.9424L197.207 13.0822L203.472 16.7118L207.702 19.1669C207.814 19.2402 207.936 19.299 208.063 19.3418C208.176 19.3761 208.293 19.3904 208.411 19.3841C208.597 19.3738 208.776 19.3133 208.93 19.2092C209.05 19.1237 209.152 19.016 209.232 18.892C209.214 18.9271 209.194 18.9611 209.172 18.9938C209.105 19.0884 209.021 19.171 208.926 19.238C208.771 19.3488 208.588 19.4153 208.398 19.4302C208.276 19.4398 208.154 19.4268 208.038 19.3918C207.907 19.3503 207.782 19.2915 207.667 19.2169L203.437 16.7907L197.161 13.1783L193.456 11.0443L191.487 9.9062L190.987 9.61783C190.807 9.52929 190.651 9.39715 190.534 9.23333C190.416 9.06397 190.349 8.86468 190.341 8.65874C190.332 8.4528 190.383 8.24871 190.486 8.0703C190.589 7.89189 190.741 7.74654 190.924 7.6512C191.107 7.55587 191.313 7.5145 191.518 7.53192C191.718 7.54854 191.911 7.6146 192.079 7.72417L192.577 8.01254L194.536 9.14297L198.237 11.2846L204.501 14.9124L208.721 17.3674C208.843 17.4304 208.957 17.5093 209.059 17.602C209.146 17.6866 209.218 17.7854 209.272 17.8942C209.355 18.0656 209.391 18.2562 209.374 18.4459C209.362 18.5614 209.333 18.6743 209.286 18.7805C209.27 18.8189 209.252 18.8561 209.232 18.892V18.892Z" fill="#263238"/>
<g opacity="0.3">
<path opacity="0.3" d="M194.756 9.51018C194.756 9.51018 202.017 10.6887 208.323 17.1444L194.756 9.51018Z" fill="black"/>
</g>
<path d="M191.322 41.5668V26.1838H206.705V41.5668H191.322Z" fill="#F9580E"/>
<path d="M190.013 25.5853C190.013 25.31 190.122 25.0459 190.317 24.8512C190.512 24.6566 190.776 24.5472 191.051 24.5472H206.921C207.197 24.5472 207.461 24.6565 207.656 24.8511C207.851 25.0458 207.961 25.3098 207.961 25.5853V25.5853C207.961 25.7219 207.934 25.8572 207.882 25.9833C207.83 26.1095 207.753 26.2242 207.657 26.3208C207.56 26.4173 207.445 26.494 207.319 26.5462C207.193 26.5985 207.058 26.6254 206.921 26.6254H191.051C190.775 26.6249 190.511 26.5151 190.317 26.3201C190.122 26.1251 190.013 25.8608 190.013 25.5853V25.5853Z" fill="#F9580E"/>
<path d="M190.013 25.5854C190.019 25.7171 190.046 25.8469 190.094 25.9699C190.163 26.1401 190.277 26.2886 190.424 26.4002C190.57 26.5117 190.743 26.5822 190.926 26.6043C191.887 26.6158 193.294 26.6043 195.025 26.6043C196.755 26.6043 198.818 26.6043 201.106 26.6043C202.249 26.6043 203.451 26.6043 204.697 26.6043H206.596C206.755 26.6086 206.914 26.6041 207.073 26.5909C207.227 26.5683 207.372 26.509 207.498 26.4178C207.658 26.3035 207.78 26.1442 207.848 25.9602C207.917 25.7762 207.93 25.5759 207.884 25.3849C207.838 25.1938 207.737 25.0207 207.592 24.8876C207.448 24.7545 207.267 24.6675 207.073 24.6376C206.915 24.624 206.757 24.6202 206.598 24.6261C205.957 24.6261 205.324 24.6261 204.699 24.6261C203.453 24.6261 202.251 24.6261 201.106 24.6261C198.818 24.6261 196.757 24.6261 195.023 24.6145C193.289 24.603 191.889 24.5953 190.926 24.6145C190.743 24.6365 190.569 24.7071 190.423 24.819C190.276 24.9309 190.163 25.0801 190.094 25.2509C190.046 25.3739 190.019 25.5037 190.013 25.6354V25.5373C190.019 25.4398 190.04 25.3438 190.076 25.2528C190.133 25.1057 190.223 24.974 190.34 24.8683C190.498 24.7185 190.7 24.6224 190.916 24.5934C191.889 24.5703 193.287 24.578 195.019 24.5684C196.751 24.5588 198.814 24.5684 201.102 24.5684C202.255 24.5684 203.449 24.5684 204.695 24.5684H206.594C206.758 24.5634 206.922 24.5679 207.085 24.5818C207.254 24.6066 207.415 24.6727 207.554 24.7741C207.694 24.8746 207.809 25.0072 207.888 25.1608C207.967 25.3145 208.008 25.4847 208.008 25.6575C208.008 25.8302 207.967 26.0005 207.888 26.1541C207.809 26.3078 207.694 26.4404 207.554 26.5409C207.416 26.6415 207.255 26.7074 207.086 26.7331C206.923 26.7471 206.758 26.7515 206.594 26.7466C205.952 26.7466 205.318 26.7466 204.695 26.7466C203.449 26.7466 202.248 26.7466 201.104 26.7466C198.816 26.7466 196.755 26.7466 195.023 26.735C193.291 26.7235 191.891 26.735 190.918 26.7101C190.702 26.6817 190.5 26.5862 190.342 26.4371C190.225 26.3313 190.135 26.1996 190.078 26.0526C190.043 25.9615 190.021 25.8655 190.015 25.768L190.013 25.5854Z" fill="#263238"/>
<g opacity="0.3">
<path opacity="0.3" d="M206.394 26.5293C206.394 26.5293 200.004 29.0285 191.343 26.4985L206.394 26.5293Z" fill="black"/>
</g>
<path d="M223.07 16.6923L242.053 16.6923V1.30927L223.07 1.30927V16.6923Z" fill="#F9580E"/>
<path d="M242.651 17.995C242.927 17.995 243.191 17.8856 243.385 17.6909C243.58 17.4962 243.689 17.2322 243.689 16.9568V1.08663C243.689 0.811115 243.58 0.546863 243.385 0.351867C243.191 0.156871 242.927 0.0470638 242.651 0.0465546V0.0465546C242.515 0.0465546 242.379 0.0734553 242.253 0.125724C242.127 0.177992 242.012 0.254607 241.916 0.351187C241.819 0.447766 241.743 0.562422 241.69 0.688609C241.638 0.814796 241.611 0.950042 241.611 1.08663V16.9568C241.612 17.2324 241.722 17.4964 241.917 17.691C242.112 17.8857 242.376 17.995 242.651 17.995V17.995Z" fill="#F9580E"/>
<path d="M242.651 17.995C242.52 17.9889 242.39 17.9616 242.267 17.9143C242.097 17.8445 241.948 17.7306 241.837 17.5842C241.725 17.4379 241.655 17.2645 241.632 17.0818C241.621 16.1206 241.632 14.7133 241.632 12.9831C241.632 11.2528 241.632 9.18999 241.632 6.90222C241.632 5.75834 241.632 4.55678 241.632 3.311V1.41157C241.628 1.25252 241.633 1.09335 241.646 0.934788C241.668 0.781276 241.728 0.635502 241.819 0.509918C241.933 0.350198 242.093 0.228168 242.277 0.159406C242.461 0.090645 242.661 0.0782742 242.852 0.12387C243.043 0.169466 243.216 0.270958 243.349 0.415395C243.482 0.559832 243.569 0.740659 243.599 0.934788C243.613 1.09269 243.617 1.25127 243.611 1.40965C243.611 2.05048 243.611 2.68362 243.611 3.30907C243.611 4.55485 243.611 5.75641 243.611 6.90222C243.611 9.18999 243.611 11.2509 243.622 12.985C243.634 14.7191 243.641 16.1187 243.622 17.0818C243.6 17.2648 243.53 17.4386 243.418 17.585C243.306 17.7314 243.157 17.8451 242.986 17.9143C242.863 17.9617 242.733 17.989 242.601 17.995H242.699C242.797 17.9888 242.893 17.9674 242.984 17.9316C243.131 17.8752 243.263 17.785 243.368 17.6682C243.518 17.5095 243.614 17.3078 243.643 17.0915C243.666 16.1187 243.659 14.721 243.668 12.9888C243.678 11.2567 243.668 9.19384 243.668 6.90606C243.668 5.75257 243.668 4.5587 243.668 3.31292V1.41349C243.673 1.24996 243.669 1.08627 243.655 0.923254C243.63 0.753532 243.564 0.592472 243.463 0.454164C243.362 0.31367 243.23 0.199179 243.076 0.120191C242.922 0.0412039 242.752 0 242.579 0C242.407 0 242.236 0.0412039 242.083 0.120191C241.929 0.199179 241.796 0.31367 241.696 0.454164C241.595 0.592215 241.529 0.752449 241.504 0.921335C241.49 1.08499 241.485 1.24932 241.49 1.41349C241.49 2.05561 241.49 2.69003 241.49 3.31292C241.49 4.5587 241.49 5.76026 241.49 6.90415C241.49 9.19192 241.49 11.2528 241.502 12.985C241.513 14.7172 241.502 16.1168 241.527 17.0895C241.555 17.3056 241.651 17.5074 241.8 17.6663C241.905 17.783 242.037 17.8733 242.184 17.9297C242.275 17.9652 242.371 17.9866 242.469 17.9931L242.651 17.995Z" fill="#263238"/>
<g opacity="0.3">
<path opacity="0.3" d="M241.707 1.61348C241.707 1.61348 239.208 8.00386 241.738 16.6647L241.707 1.61348Z" fill="black"/>
</g>
<path d="M256.454 74.4602C256.454 74.5546 241.43 74.6239 222.908 74.6239C204.386 74.6239 189.358 74.5295 189.358 74.4602C189.358 74.391 204.376 74.2966 222.908 74.2966C241.44 74.2966 256.454 74.3469 256.454 74.4602Z" fill="#282828"/>
<path d="M250.861 62.195C251.14 62.3273 251.389 62.5148 251.593 62.7461C251.797 62.9774 251.952 63.2477 252.049 63.5407C252.24 64.1276 252.294 64.7504 252.207 65.3613C252.072 66.5437 251.401 67.7375 250.678 68.6815C249.682 67.8125 249.454 66.2976 249.386 65.5209C249.279 64.2963 249.829 62.0143 250.861 62.1969" fill="#F9580E"/>
<path d="M251.836 70.631C251.767 70.2933 251.79 69.9435 251.9 69.6173C252.011 69.2911 252.206 69.0001 252.466 68.7738C252.73 68.5506 253.037 68.3826 253.367 68.2799C253.697 68.1772 254.045 68.1419 254.389 68.1759C254.706 68.199 255.048 68.2913 255.229 68.5604C255.307 68.6872 255.349 68.8327 255.352 68.9815C255.354 69.1304 255.316 69.2771 255.242 69.4063C255.091 69.6642 254.875 69.8777 254.616 70.0254C253.752 70.5656 252.82 70.9309 251.845 70.6386" fill="#F9580E"/>
<path d="M250.559 74.251C250.562 74.1693 250.574 74.0881 250.594 74.0088C250.624 73.8377 250.665 73.6243 250.715 73.3513C250.825 72.6207 251.054 71.913 251.392 71.2557C251.742 70.5982 252.262 70.046 252.897 69.6562C253.09 69.5421 253.296 69.4511 253.51 69.3852C253.568 69.3658 253.627 69.3504 253.687 69.339C253.727 69.339 253.749 69.3275 253.75 69.339C253.464 69.4385 253.188 69.5674 252.928 69.7235C252.314 70.121 251.812 70.6673 251.467 71.3115C251.135 71.9631 250.902 72.6602 250.774 73.3801C250.713 73.655 250.665 73.878 250.626 74.0299C250.609 74.105 250.586 74.1789 250.559 74.251V74.251Z" fill="#263238"/>
<path d="M250.596 63.9695C250.604 64.004 250.608 64.0396 250.607 64.0752C250.607 64.154 250.619 64.254 250.626 64.379C250.64 64.6443 250.655 65.0269 250.671 65.5017C250.701 66.4476 250.726 67.7568 250.719 69.2025C250.711 70.6482 250.678 71.9575 250.638 72.9053C250.619 73.3782 250.601 73.7608 250.584 74.0261C250.584 74.151 250.569 74.251 250.563 74.3298C250.563 74.3655 250.558 74.401 250.55 74.4356C250.547 74.4004 250.547 74.365 250.55 74.3298C250.55 74.2504 250.55 74.1485 250.55 74.0241C250.55 73.7492 250.565 73.3686 250.576 72.9033C250.599 71.9555 250.624 70.6482 250.632 69.2025C250.64 67.7568 250.623 66.4495 250.607 65.5017C250.607 65.0365 250.596 64.6558 250.59 64.3809C250.59 64.2559 250.59 64.154 250.59 64.0752C250.589 64.0399 250.591 64.0045 250.596 63.9695V63.9695Z" fill="#263238"/>
<path d="M250.113 71.3499C249.993 70.6333 249.703 69.9557 249.268 69.3733C248.834 68.7909 248.267 68.3204 247.614 68.0009C247.281 67.8413 246.845 67.7375 246.574 67.9855C246.303 68.2335 246.362 68.6776 246.497 69.0218C246.789 69.7356 247.286 70.3471 247.925 70.7789C248.564 71.2106 249.317 71.4435 250.088 71.4479" fill="#F9580E"/>
<path d="M247.777 69.1217C247.85 69.1464 247.921 69.1773 247.989 69.2139C248.071 69.2515 248.151 69.2946 248.227 69.3428C248.332 69.4012 248.433 69.4654 248.531 69.535C248.652 69.6153 248.768 69.7026 248.879 69.7965C249.009 69.9011 249.133 70.0134 249.25 70.1329C249.796 70.6756 250.199 71.3445 250.425 72.0804C250.473 72.2401 250.512 72.4025 250.542 72.5668C250.57 72.7091 250.59 72.8529 250.601 72.9974C250.619 73.1301 250.613 73.2512 250.619 73.355C250.622 73.4455 250.619 73.5361 250.609 73.6261C250.609 73.703 250.6 73.7797 250.584 73.8549C250.565 73.8549 250.599 73.5261 250.54 73.0032C250.525 72.8611 250.501 72.7199 250.471 72.5802C250.439 72.4192 250.399 72.26 250.35 72.1035C250.233 71.7457 250.078 71.4015 249.888 71.0769C249.692 70.7561 249.462 70.4571 249.202 70.1848C249.088 70.0666 248.968 69.9543 248.842 69.8484C248.735 69.7542 248.623 69.6656 248.506 69.5831C248.07 69.2755 247.77 69.139 247.777 69.1217Z" fill="#263238"/>
<path d="M345.499 0.9328C344.118 13.5252 341.8 25.9971 338.565 38.2449H349.533C349.886 38.2447 350.225 38.1043 350.475 37.8544C350.725 37.6045 350.865 37.2656 350.865 36.9123C350.865 36.559 350.725 36.2201 350.475 35.9702C350.225 35.7204 349.886 35.5799 349.533 35.5797H342.001C342.445 33.8075 342.87 32.0307 343.276 30.2494H352.094C352.254 30.9581 352.417 31.666 352.583 32.3732L354.379 28.2766C352.382 19.2505 350.877 10.1224 349.871 0.9328H345.499ZM347.685 5.16477C348.29 9.99282 349.031 14.8028 349.908 19.5888H345.462C346.339 14.8028 347.081 9.99282 347.685 5.16477V5.16477ZM344.958 22.254H350.408C350.753 24.0346 351.118 25.8114 351.501 27.5843H343.864C344.248 25.8114 344.612 24.0346 344.958 22.254V22.254Z" fill="#F9580E"/>
<path d="M330.653 40.91L389.51 74.8907V40.91H330.653ZM360.49 48.9055H381.515V61.0444L360.49 48.9055Z" fill="#F9580E"/>
<path d="M336.055 47.1065C333.12 56.79 329.611 66.2903 325.547 75.5567H336.516C336.664 72.6944 337.904 69.998 339.982 68.0241C342.061 66.0502 344.817 64.9498 347.683 64.9498C350.549 64.9498 353.306 66.0502 355.384 68.0241C357.462 69.998 358.703 72.6944 358.85 75.5567H369.82C368.123 71.6881 366.523 67.778 365.021 63.8299L361.394 61.7365C362.768 65.4882 364.229 69.2077 365.776 72.8915H361.146C360.419 69.8688 358.695 67.1788 356.253 65.2547C353.811 63.3306 350.792 62.2843 347.683 62.2843C344.574 62.2843 341.556 63.3306 339.114 65.2547C336.672 67.1788 334.948 69.8688 334.221 72.8915H329.591C332.944 64.9062 335.892 56.7568 338.424 48.4745L336.055 47.1065Z" fill="#F9580E"/>
<path d="M363.546 33.6177L357.928 26.8284L353.989 35.8064L363.546 33.6177Z" fill="#F9580E"/>
<path d="M365.599 31.9186L383.622 17.0034L378.003 10.2141L359.981 25.1293L365.599 31.9186Z" fill="#F9580E"/>
<path d="M70.0544 14.1691H91.7803V17.9711C91.7803 19.0015 90.9451 19.8367 89.9147 19.8367H71.92C70.8896 19.8367 70.0544 19.0015 70.0544 17.9711V14.1691Z" fill="#F9580E"/>
<path d="M94.6142 5.66763H102.171V10.3907H94.6142V5.66763Z" fill="#F9580E"/>
<path fill-rule="evenodd" clip-rule="evenodd" d="M66.2523 0C65.222 0 64.3867 0.835256 64.3867 1.8656V13.2481C64.3867 14.2784 65.222 15.1137 66.2523 15.1137H94.9076C95.938 15.1137 96.7732 14.2784 96.7732 13.2481V1.8656C96.7732 0.835257 95.938 0 94.9076 0H66.2523ZM80.904 11.8751C83.2889 11.8751 85.2222 9.94174 85.2222 7.55687C85.2222 5.17199 83.2889 3.23867 80.904 3.23867C78.5192 3.23867 76.5858 5.17199 76.5858 7.55687C76.5858 9.94174 78.5192 11.8751 80.904 11.8751Z" fill="#F9580E"/>
<path fill-rule="evenodd" clip-rule="evenodd" d="M74.8423 19.8367C74.883 19.8839 74.9243 19.9306 74.9662 19.977L67.9581 43.0188H62.8207V44.3013H67.5683L62.5522 60.7933L62.4975 60.9754L66.4397 74.6231L75.6664 44.3013H78.9913V49.0309H83.1455V44.3013H86.4756L95.6954 74.6239L99.6376 60.9754L94.5668 44.3013H99.3144V43.0188H94.177L87.1698 19.9787C87.2124 19.9318 87.2544 19.8844 87.2958 19.8367H74.8423ZM83.1447 38.2901V43.0188H86.0831L81.0705 26.5345L76.0545 43.0188H78.9896V38.2901H83.1447Z" fill="#F9580E"/>
<path d="M27.8404 0L27.7363 5.08186e-05C19.5141 5.08186e-05 13.6514 1.80363 10.1475 5.4116C7.75371 7.90944 6.31396 10.1818 5.82828 12.2286C4.09368 15.5244 3.22637 25.065 3.22637 40.8497C3.22637 41.266 3.26108 42.7925 3.33045 45.4291H0V54.432H7.07707V58.6471H4.47516V59.7919H2.49773V60.7807H7.07712V72.021H47.407V50.8415H43.7123V47.407H51.2577V36.375H54.9525V34.2934H26.7476V43.8164H36.1144V61.6132H21.2835V51.2057H18.2132C18.0398 47.806 17.953 42.7064 17.953 35.9064V30.0779C17.953 25.8799 18.3173 22.2373 19.0459 19.1497C20.2949 14.5358 23.0702 12.2288 27.372 12.2288C29.1066 12.3329 30.581 12.541 31.7952 12.8533C35.7502 13.9984 37.7276 17.502 37.7276 23.3652V23.6254L37.8838 23.8856L50.0087 22.2724C50.0087 17.3807 49.4363 13.5819 48.2914 10.8759C45.7933 3.62534 38.9763 0 27.8404 0Z" fill="#F9580E"/>
<path d="M20.0343 46.8869H19.3058V50.2174H20.0343V46.8869Z" fill="#F9580E"/>
<path fill-rule="evenodd" clip-rule="evenodd" d="M25.2384 59.0121C25.2384 58.2141 24.7007 57.7284 23.6252 57.555C22.8274 57.555 22.2896 58.0926 22.0121 59.1681C22.0121 60.3823 22.5152 60.9895 23.5212 60.9895H23.6253C24.6313 60.9895 25.169 60.4518 25.2384 59.3763V59.0121ZM22.8968 59.7925L22.8968 59.168C22.8968 58.5782 23.1917 58.2833 23.7814 58.2833H23.8855C24.3018 58.5262 24.51 58.8558 24.51 59.2721C24.4406 59.9312 24.2672 60.2608 23.9896 60.2608H23.4172C23.0703 60.0527 22.8968 59.8965 22.8968 59.7925Z" fill="#F9580E"/>
<path d="M29.1933 57.6589H26.4873L26.4873 58.1793C26.4873 58.3181 26.574 58.3874 26.7475 58.3874H27.476V60.7812C27.476 60.92 27.5627 60.9894 27.7362 60.9894H28.1005C28.2739 60.9894 28.3606 60.92 28.3606 60.7812V58.3874H29.1933V57.6589Z" fill="#F9580E"/>
<path d="M32.7842 73.1146H17.4327V74.6237H32.7842V73.1146Z" fill="#F9580E"/>
<path fill-rule="evenodd" clip-rule="evenodd" d="M47.5727 49.4381H47.7593H52.2367V49.6965H47.7593V50.2133H49.8115V50.4717H47.7593V50.9885H49.8115V51.247H47.7593V51.7638H49.8115V52.0222H47.7593V52.539H49.8115V52.7974H47.7593V53.3142H50.9308V53.5726H47.7593V54.0895H49.8115V54.3479H47.7593V54.8647H49.8115V55.1231H47.7593V55.6399H49.8115V55.8983H47.7593V56.4152H49.8115V56.6736H47.7593V57.1904H52.2367V57.4488H47.7593V57.9656H49.8115V58.224H47.7593V58.7409H49.8115V58.9993H47.7593V59.5161H49.8115V59.7745H47.7593V60.2913H49.8115V60.5497H47.7593V61.0666H50.9308V61.325H47.7593V61.8418H49.8115V62.1002H47.7593V62.617H49.8115V62.8754H47.7593V63.3922H49.8115V63.6507H47.7593V64.1675H49.8115V64.4259H47.7593V64.9427H52.2367V65.2011H47.7593V65.7179H49.8115V65.9764H47.7593V66.4932H49.8115V66.7516H47.7593V67.2684H49.8115V67.5268H47.7593V68.0436H49.8115V68.302H47.7593V68.8189H50.9308V69.0773H47.7593V69.5941H49.8115V69.8525H47.7593V70.3693H49.8115V70.6277H47.7593V71.1446H49.8115V71.403H47.7593V71.8253H47.5727V49.4381Z" fill="#F9580E"/>
<path d="M26.5702 133.66V139.563H9.60492V133.66H26.5702ZM12.3377 107.731V139.563H4.664V107.731H12.3377ZM24.384 120.367V126.074H9.60492V120.367H24.384ZM26.6358 107.731V113.656H9.60492V107.731H26.6358Z" fill="#282828"/>
<path d="M67.4967 107.731V139.563H59.8449L48.5857 119.755V139.563H40.912V107.731H48.5857L59.8449 127.538V107.731H67.4967Z" fill="#282828"/>
<path d="M109.582 122.554V135.627C109.043 136.225 108.212 136.866 107.09 137.551C105.982 138.222 104.583 138.798 102.892 139.279C101.201 139.759 99.2119 140 96.9236 140C94.8103 140 92.8937 139.665 91.1738 138.994C89.454 138.309 87.9746 137.311 86.7357 135.999C85.5114 134.673 84.5641 133.055 83.8936 131.146C83.2377 129.222 82.9098 127.021 82.9098 124.543V122.772C82.9098 120.295 83.245 118.094 83.9155 116.17C84.5859 114.246 85.526 112.628 86.7357 111.316C87.96 109.99 89.3957 108.984 91.0426 108.299C92.7042 107.614 94.5261 107.272 96.5083 107.272C99.4378 107.272 101.821 107.738 103.657 108.671C105.494 109.589 106.886 110.865 107.833 112.497C108.78 114.115 109.356 115.988 109.56 118.116H102.192C102.047 117.066 101.77 116.177 101.362 115.448C100.968 114.705 100.4 114.144 99.6564 113.765C98.9131 113.371 97.9512 113.175 96.7706 113.175C95.8524 113.175 95.0143 113.371 94.2564 113.765C93.5131 114.159 92.8791 114.756 92.3544 115.558C91.8297 116.345 91.4216 117.336 91.1301 118.531C90.8532 119.726 90.7147 121.125 90.7147 122.729V124.543C90.7147 126.132 90.8459 127.524 91.1082 128.719C91.3851 129.914 91.7932 130.912 92.3325 131.714C92.8864 132.501 93.586 133.099 94.4313 133.507C95.2912 133.9 96.3042 134.097 97.4702 134.097C98.2864 134.097 98.986 134.032 99.569 133.9C100.152 133.755 100.633 133.58 101.012 133.376C101.405 133.157 101.704 132.953 101.908 132.763V127.823H96.5738V122.554H109.582Z" fill="#282828"/>
<path d="M133.412 107.731V139.563H125.76V107.731H133.412Z" fill="#282828"/>
<path d="M176.59 107.731V139.563H168.939L157.679 119.755V139.563H150.006V107.731H157.679L168.939 127.538V107.731H176.59Z" fill="#282828"/>
<path d="M214.544 133.66V139.563H197.578V133.66H214.544ZM200.311 107.731V139.563H192.638V107.731H200.311ZM212.357 120.367V126.074H197.578V120.367H212.357ZM214.609 107.731V113.656H197.578V107.731H214.609Z" fill="#282828"/>
<path d="M250.792 133.66V139.563H233.826V133.66H250.792ZM236.559 107.731V139.563H228.886V107.731H236.559ZM248.605 120.367V126.074H233.826V120.367H248.605ZM250.857 107.731V113.656H233.826V107.731H250.857Z" fill="#282828"/>
<path d="M265.134 107.731H277.661C280.109 107.731 282.237 108.095 284.045 108.824C285.852 109.553 287.244 110.631 288.22 112.06C289.211 113.488 289.707 115.252 289.707 117.35C289.707 119.172 289.423 120.695 288.854 121.92C288.286 123.144 287.492 124.157 286.471 124.959C285.466 125.746 284.292 126.394 282.951 126.904L280.437 128.325H269.921L269.878 122.401H277.661C278.637 122.401 279.446 122.226 280.087 121.876C280.729 121.526 281.21 121.031 281.53 120.389C281.866 119.733 282.033 118.954 282.033 118.05C282.033 117.132 281.866 116.345 281.53 115.689C281.195 115.033 280.7 114.53 280.044 114.18C279.402 113.831 278.608 113.656 277.661 113.656H272.807V139.563H265.134V107.731ZM282.558 139.563L275.518 125.483L283.651 125.44L290.778 139.235V139.563H282.558Z" fill="#282828"/>
<path d="M313.69 107.731V139.563H306.038V107.731H313.69Z" fill="#282828"/>
<path d="M356.868 107.731V139.563H349.217L337.957 119.755V139.563H330.284V107.731H337.957L349.217 127.538V107.731H356.868Z" fill="#282828"/>
<path d="M398.954 122.554V135.627C398.414 136.225 397.584 136.866 396.461 137.551C395.354 138.222 393.954 138.798 392.264 139.279C390.573 139.759 388.584 140 386.295 140C384.182 140 382.265 139.665 380.546 138.994C378.826 138.309 377.346 137.311 376.107 135.999C374.883 134.673 373.936 133.055 373.265 131.146C372.609 129.222 372.281 127.021 372.281 124.543V122.772C372.281 120.295 372.617 118.094 373.287 116.17C373.958 114.246 374.898 112.628 376.107 111.316C377.332 109.99 378.767 108.984 380.414 108.299C382.076 107.614 383.898 107.272 385.88 107.272C388.81 107.272 391.193 107.738 393.029 108.671C394.865 109.589 396.257 110.865 397.205 112.497C398.152 114.115 398.728 115.988 398.932 118.116H391.564C391.418 117.066 391.142 116.177 390.733 115.448C390.34 114.705 389.771 114.144 389.028 113.765C388.285 113.371 387.323 113.175 386.142 113.175C385.224 113.175 384.386 113.371 383.628 113.765C382.885 114.159 382.251 114.756 381.726 115.558C381.201 116.345 380.793 117.336 380.502 118.531C380.225 119.726 380.086 121.125 380.086 122.729V124.543C380.086 126.132 380.218 127.524 380.48 128.719C380.757 129.914 381.165 130.912 381.704 131.714C382.258 132.501 382.958 133.099 383.803 133.507C384.663 133.9 385.676 134.097 386.842 134.097C387.658 134.097 388.358 134.032 388.941 133.9C389.524 133.755 390.005 133.58 390.384 133.376C390.777 133.157 391.076 132.953 391.28 132.763V127.823H385.946V122.554H398.954Z" fill="#282828"/>
</svg>
